<svg xmlns="http://www.w3.org/2000/svg" width="600" height="73" viewBox="0 0 600 73"><g><g><g/><g><g><g><g><path fill="#1074a2" d="M.36 0h28.375C60.959 0 62.527.29 67.66 6.758l2.923 3.766v7.725c0 8.594-.926 11.201-5.346 15.258-4.349 4.055-6.701 4.44-28.304 4.827l-20.889.483v15.256H.36zm16.398 11.587v17.38H32.37c9.339 0 16.468-.385 17.68-1.06 2.923-1.45 5.204-4.733 5.204-7.34 0-2.994-1.782-7.628-3.207-8.4-.642-.29-8.842-.58-18.252-.58z"/></g></g><g><g><path fill="#1074a2" d="M80.342 27.23c.142 15.063.428 27.23.784 27.037.285-.098 13.332-.194 29.016-.194h28.518v-9.655H96.596V0H80.2z"/></g></g><g><g><path fill="#1074a2" d="M180.867 0h23.172l5.987 8.4c10.909 15.354 29.872 44.418 29.872 45.576 0 .29-4.278.387-9.553.097l-9.482-.483-3.779-6.083-3.707-5.987H171.6l-3.99 6.18-4.064 6.277-9.198.288c-5.133.194-9.268.098-9.268-.192 0-.87 18.322-28.872 27.234-41.81zm12.335 10.911c-1.212-.482-13.19 16.898-13.19 19.119 0 .482 5.49.87 12.832.87 14.972 0 14.402 1.061 6.275-11.491-2.852-4.538-5.56-8.304-5.918-8.498z"/></g></g><g><g><path fill="#1074a2" d="M246.462 27.133l.214 27.036h16.398l.213-21.724c.071-11.975.357-21.824.571-21.824 2.067 0 8.697 6.664 25.165 25.395 5.99 6.856 12.406 13.712 14.189 15.256l3.279 2.801h27.518V0h-15.684l-.142 22.208-.214 22.21-2.852-2.03c-3.565-2.605-8.484-7.723-22.101-22.883-5.846-6.566-12.548-13.615-14.899-15.738L273.98 0h-27.66z"/></g></g><g><g><path fill="#1074a2" d="M347.692 27.23c.142 15.063.428 27.23.784 27.037.285-.098 15.898-.194 34.72-.194h34.22v-9.655h-53.47V31.865h52.045v-9.657h-52.045V9.657h53.47V0H347.55z"/></g></g><g><g><path fill="#1074a2" d="M426.69 5.31v5.311h29.23v43.934l7.841-.288 7.842-.29V10.623l14.473-.194 14.402-.29V.482L463.619.194 426.69 0z"/></g></g><g><g><path fill="#1074a2" d="M539.469 0h23.883l9.268 13.712c11.55 17.187 25.88 39.395 25.88 40.265 0 .289-4.206.482-9.34.386l-9.41-.194-2.993-5.117c-1.642-2.8-3.495-5.698-4.065-6.373-.856-.869-5.989-1.158-22.03-.966l-20.888.29-3.637 6.084-3.635 6.082-9.412.194c-5.203.096-9.41 0-9.41-.29 0-.772 13.119-20.858 24.74-37.947zm19.25 20.084c-3.067-5.118-5.919-9.367-6.417-9.463-1.853 0-13.688 16.705-13.688 19.409 0 .965 10.835.965 19.747.096l5.776-.676z"/></g></g><g><g><path fill="#1074a2" d="M.284 64.985c0 .096-.07 1.834-.142 3.863L0 72.421h600l-.214-3.67-.214-3.573L300 64.985c-164.829-.193-299.644-.193-299.716 0z"/></g></g></g></g></g></g></svg>